Coordinates
version=1
nRows=10
nColumns=46
inDegrees=yes

Units are S.I. units (second, meters, Newtons, ...)
Angles are in degrees.

endheader
time	pelvis_tilt	pelvis_list	pelvis_rotation	pelvis_tx	pelvis_ty	pelvis_tz	bb_angle	bb_tx	bb_ty	bb_tz	hip_flexion_r	hip_adduction_r	hip_rotation_r	knee_angle_r	knee_angle_r_beta	ankle_angle_r	subtalar_angle_r	mtp_angle_r	crank_angle_r	hip_flexion_l	hip_adduction_l	hip_rotation_l	knee_angle_l	knee_angle_l_beta	ankle_angle_l	subtalar_angle_l	mtp_angle_l	crank_angle_l	lumbar_extension	lumbar_bending	lumbar_rotation	arm_flex_r	arm_add_r	arm_rot_r	elbow_flex_r	pro_sup_r	wrist_flex_r	wrist_dev_r	arm_flex_l	arm_add_l	arm_rot_l	elbow_flex_l	pro_sup_l	wrist_flex_l	wrist_dev_l
      0.00000000	    -28.78398293	    -32.18252938	     -1.40785021	      0.12093964	      1.00485899	     -0.27166729	      0.00000000	      0.50000000	      0.00000000	      0.25000000	     65.81027818	     18.90876416	    -23.30409382	     60.43922541	      1.05486348	      8.74409119	    -18.79955882	      0.00000000	      0.00000000	    119.98535039	      1.35042332	     39.96518971	    115.46718978	      2.01528264	     25.87989389	      4.90235906	      0.00000000	      0.00000000	    -31.15101660	     32.40949520	     13.55053978	     82.53548996	     -9.61664843	     64.24835955	     32.50753456	     39.46129251	      0.00000000	      0.00000000	     82.27687376	    -23.04293090	     75.83947190	     33.64434319	     54.63866939	      0.00000000	      0.00000000
      0.00500000	    -28.78444034	    -32.17817400	     -1.41606728	      0.12094117	      1.00484670	     -0.27167797	      0.00000000	      0.50000000	      0.00000000	      0.25000000	     65.80711021	     18.90818425	    -23.30400979	     60.43743774	      1.05483228	      8.74857526	    -18.79834819	      0.00000000	      0.00000000	    119.98534482	      1.34853877	     39.96519845	    115.47568994	      2.01543100	     25.87529867	      4.90174378	      0.00000000	      0.00000000	    -31.14953001	     32.40330409	     13.54642927	     82.53239307	     -9.61864663	     64.24655260	     32.50782532	     39.46647434	      0.00000000	      0.00000000	     82.28371570	    -23.04934876	     75.83612380	     33.63814356	     54.64144182	      0.00000000	      0.00000000
      0.01000000	    -28.78616453	    -32.17161484	     -1.42381932	      0.12093681	      1.00483655	     -0.27167934	      0.00000000	      0.50000000	      0.00000000	      0.25000000	     65.80464818	     18.90606377	    -23.30248845	     60.43600106	      1.05480721	      8.75182907	    -18.79524235	      0.00000000	      0.00000000	    119.98534253	      1.34842110	     39.96521051	    115.48227916	      2.01554600	     25.87203883	      4.89862914	      0.00000000	      0.00000000	    -31.14816596	     32.39545033	     13.54506295	     82.53069678	     -9.61765140	     64.24504180	     32.50910957	     39.47183241	      0.00000000	      0.00000000	     82.28704172	    -23.05379874	     75.83402998	     33.63289393	     54.64459341	      0.00000000	      0.00000000
      0.01500000	    -28.83107342	    -32.20013673	     -1.42737964	      0.12097722	      1.00500016	     -0.27182136	      0.00000000	      0.50000000	      0.00000000	      0.25000000	     65.78617525	     18.91966861	    -23.31832640	     60.33189197	      1.05299016	      8.76345359	    -18.79161309	      0.00000000	      0.00000000	    119.98539707	      1.37882069	     39.96517189	    115.44790781	      2.01494611	     25.86978861	      4.88760827	      0.00000000	      0.00000000	    -31.11913299	     32.44231796	     13.55646181	     82.51887169	     -9.61353694	     64.24357129	     32.51293108	     39.48538272	      0.00000000	      0.00000000	     82.28436047	    -23.06138806	     75.83401046	     33.62231441	     54.65378843	      0.00000000	      0.00000000
      0.02000000	    -28.85032839	    -32.21866446	     -1.42895171	      0.12093090	      1.00504826	     -0.27192975	      0.00000000	      0.50000000	      0.00000000	      0.25000000	     65.78974797	     18.91826800	    -23.33400484	     60.28506274	      1.05217283	      8.74575497	    -18.75339950	      0.00000000	      0.00000000	    119.98539496	      1.40805639	     39.96523368	    115.43878185	      2.01478683	     25.87560743	      4.84963770	      0.00000000	      0.00000000	    -31.11727120	     32.47022118	     13.54312995	     82.51978149	     -9.60561370	     64.24022469	     32.51862320	     39.50163247	      0.00000000	      0.00000000	     82.24948206	    -23.03934475	     75.84652619	     33.62319081	     54.66900286	      0.00000000	      0.00000000
      0.02500000	    -28.83716219	    -32.22331931	     -1.42430292	      0.12098491	      1.00504874	     -0.27193579	      0.00000000	      0.50000000	      0.00000000	      0.25000000	     65.77327566	     18.92554534	    -23.34155112	     60.28042587	      1.05209191	      8.74738496	    -18.74699598	      0.00000000	      0.00000000	    119.98535888	      1.40328425	     39.96523972	    115.45359052	      2.01504529	     25.86690092	      4.84308062	      0.00000000	      0.00000000	    -31.12556140	     32.47132429	     13.53407676	     82.51947700	     -9.61213202	     64.23749517	     32.51657768	     39.50597179	      0.00000000	      0.00000000	     82.25183129	    -23.04047586	     75.84402818	     33.61900742	     54.67190875	      0.00000000	      0.00000000
      0.03000000	    -28.82116940	    -32.22275919	     -1.41549919	      0.12086564	      1.00507927	     -0.27185213	      0.00000000	      0.50000000	      0.00000000	      0.25000000	     65.77183832	     18.92904306	    -23.34100586	     60.27298909	      1.05196211	      8.74659470	    -18.74092136	      0.00000000	      0.00000000	    119.98532823	      1.40121851	     39.96519496	    115.44919827	      2.01496863	     25.85144407	      4.84054236	      0.00000000	      0.00000000	    -31.13971574	     32.46039958	     13.53484707	     82.52052723	     -9.61225123	     64.23552310	     32.51598359	     39.51074656	      0.00000000	      0.00000000	     82.25907693	    -23.04391495	     75.84047065	     33.61340555	     54.67455128	      0.00000000	      0.00000000
      0.03500000	    -28.82391752	    -32.21484761	     -1.42031176	      0.12085223	      1.00508001	     -0.27187146	      0.00000000	      0.50000000	      0.00000000	      0.25000000	     65.76626218	     18.91865677	    -23.34118051	     60.26350942	      1.05179666	      8.74188537	    -18.73124333	      0.00000000	      0.00000000	    119.98535923	      1.40374526	     39.96523338	    115.45029942	      2.01498785	     25.83318161	      4.83476772	      0.00000000	      0.00000000	    -31.13848609	     32.45955246	     13.54726837	     82.52496275	     -9.60769187	     64.23301903	     32.51736653	     39.51852247	      0.00000000	      0.00000000	     82.26919676	    -23.05082836	     75.83641155	     33.60522529	     54.67907633	      0.00000000	      0.00000000
      0.04000000	    -28.81899527	    -32.20958358	     -1.42265000	      0.12090631	      1.00513585	     -0.27176695	      0.00000000	      0.50000000	      0.00000000	      0.25000000	     65.75824598	     18.92840472	    -23.33826454	     60.25440231	      1.05163771	      8.73878623	    -18.72449029	      0.00000000	      0.00000000	    119.98535838	      1.38025582	     39.96522517	    115.45109646	      2.01500176	     25.82461918	      4.82963964	      0.00000000	      0.00000000	    -31.14553595	     32.44350024	     13.54540723	     82.52323512	     -9.60664502	     64.23109143	     32.51714695	     39.52443573	      0.00000000	      0.00000000	     82.27007410	    -23.05146272	     75.83536080	     33.60144178	     54.68331888	      0.00000000	      0.00000000
      0.04500000	    -28.81986832	    -32.20604318	     -1.43225658	      0.12090151	      1.00514623	     -0.27175380	      0.00000000	      0.50000000	      0.00000000	      0.25000000	     65.75897404	     18.93522350	    -23.33605823	     60.24707721	      1.05150986	      8.73608995	    -18.71925900	      0.00000000	      0.00000000	    119.98532489	      1.37219965	     39.96520301	    115.46242382	      2.01519946	     25.81790963	      4.82622760	      0.00000000	      0.00000000	    -31.15237907	     32.43422604	     13.54709406	     82.52174643	     -9.60557794	     64.22929362	     32.51682191	     39.52944175	      0.00000000	      0.00000000	     82.27401075	    -23.05361735	     75.83333060	     33.59744452	     54.68661250	      0.00000000	      0.00000000
